<?xml version="1.0" encoding="UTF-8"?>
<svg id="_鍒楀嵃鍦栧堡" data-name="鍒楀嵃鍦栧堡" xmlns="http://www.w3.org/2000/svg" xmlns:xlink="http://www.w3.org/1999/xlink" viewBox="0 0 151.83 34.83">
  <defs>
    <style>
      .cls-1 {
        fill: url(#_鏈懡鍚嶆几灞88);
      }

      .cls-1, .cls-2, .cls-3, .cls-4, .cls-5, .cls-6, .cls-7, .cls-8, .cls-9, .cls-10, .cls-11, .cls-12 {
        stroke: #827d82;
        stroke-linecap: round;
        stroke-linejoin: round;
        stroke-width: .01px;
      }

      .cls-2 {
        fill: url(#_鏈懡鍚嶆几灞378);
      }

      .cls-3 {
        fill: url(#_鏈懡鍚嶆几灞302);
      }

      .cls-4 {
        fill: url(#_鏈懡鍚嶆几灞330);
      }

      .cls-13 {
        fill: #A6CCB0;
      }

      .cls-5 {
        fill: url(#_鏈懡鍚嶆几灞100);
      }

      .cls-6 {
        fill: url(#_鏈懡鍚嶆几灞84);
      }

      .cls-7 {
        fill: url(#_鏈懡鍚嶆几灞4);
      }

      .cls-8 {
        fill: url(#_鏈懡鍚嶆几灞152);
      }

      .cls-9 {
        fill: url(#_鏈懡鍚嶆几灞75);
      }

      .cls-10 {
        fill: url(#_鏈懡鍚嶆几灞156);
      }

      .cls-11 {
        fill: url(#_鏈懡鍚嶆几灞325);
      }

      .cls-14 {
        fill: #A6CCB0;
      }

      .cls-12 {
        fill: url(#_鏈懡鍚嶆几灞115);
      }
    </style>
    <linearGradient id="_鏈懡鍚嶆几灞100" data-name="鏈懡鍚嶆几灞?100" x1="4.37" y1="12.33" x2="12.33" y2="12.33" gradientTransform="translate(19.05 1.97) rotate(80)" gradientUnits="userSpaceOnUse">
      <stop offset="0" stop-color="#f39800"/>
      <stop offset="1" stop-color="#f6b063"/>
    </linearGradient>
    <linearGradient id="_鏈懡鍚嶆几灞88" data-name="鏈懡鍚嶆几灞?88" x1="2.7" y1="16.29" x2="10.68" y2="16.29" gradientTransform="translate(5.97 -1.3) rotate(20)" gradientUnits="userSpaceOnUse">
      <stop offset="0" stop-color="#fff100"/>
      <stop offset=".35" stop-color="#fff002"/>
      <stop offset=".52" stop-color="#ffef09"/>
      <stop offset=".65" stop-color="#ffed16"/>
      <stop offset=".76" stop-color="#ffea29"/>
      <stop offset=".86" stop-color="#ffe741"/>
      <stop offset=".95" stop-color="#ffe25f"/>
      <stop offset="1" stop-color="#ffe071"/>
    </linearGradient>
    <linearGradient id="_鏈懡鍚嶆几灞75" data-name="鏈懡鍚嶆几灞?75" x1="4.45" y1="23.32" x2="10" y2="17.77" gradientTransform="translate(18.32 1.8) rotate(50)" gradientUnits="userSpaceOnUse">
      <stop offset="0" stop-color="#ded429"/>
      <stop offset=".39" stop-color="#dfd42b"/>
      <stop offset=".59" stop-color="#e2d532"/>
      <stop offset=".74" stop-color="#e8d73f"/>
      <stop offset=".86" stop-color="#f1da52"/>
      <stop offset=".98" stop-color="#fcde6a"/>
      <stop offset="1" stop-color="#ffe071"/>
    </linearGradient>
    <linearGradient id="_鏈懡鍚嶆几灞302" data-name="鏈懡鍚嶆几灞?302" x1="9.82" y1="27.94" x2="9.82" y2="19.98" gradientTransform="translate(31.71 10.13) rotate(80)" gradientUnits="userSpaceOnUse">
      <stop offset="0" stop-color="#bbd762"/>
      <stop offset="1" stop-color="#c1dc8e"/>
    </linearGradient>
    <linearGradient id="_鏈懡鍚嶆几灞156" data-name="鏈懡鍚嶆几灞?156" x1="13.77" y1="29.61" x2="13.77" y2="21.63" gradientTransform="translate(9.59 -3.16) rotate(20)" gradientUnits="userSpaceOnUse">
      <stop offset=".01" stop-color="#489637"/>
      <stop offset="1" stop-color="#8cc223"/>
    </linearGradient>
    <linearGradient id="_鏈懡鍚嶆几灞152" data-name="鏈懡鍚嶆几灞?152" x1="20.02" y1="28.54" x2="16.03" y2="21.63" gradientTransform="translate(25.65 -4.85) rotate(50)" gradientUnits="userSpaceOnUse">
      <stop offset="0" stop-color="#004123"/>
      <stop offset="1" stop-color="#28b17f"/>
    </linearGradient>
    <linearGradient id="_鏈懡鍚嶆几灞84" data-name="鏈懡鍚嶆几灞?84" x1="24.89" y1="24.49" x2="17.99" y2="20.5" gradientTransform="translate(39.87 -2.53) rotate(80)" gradientUnits="userSpaceOnUse">
      <stop offset="0" stop-color="#004485"/>
      <stop offset="1" stop-color="#16a8a9"/>
    </linearGradient>
    <linearGradient id="_鏈懡鍚嶆几灞115" data-name="鏈懡鍚嶆几灞?115" x1="19.11" y1="18.54" x2="27.09" y2="18.54" gradientTransform="translate(7.73 -6.78) rotate(20)" gradientUnits="userSpaceOnUse">
      <stop offset="0" stop-color="#0d357e"/>
      <stop offset=".24" stop-color="#123b84"/>
      <stop offset=".6" stop-color="#234f97"/>
      <stop offset="1" stop-color="#3c6db5"/>
    </linearGradient>
    <linearGradient id="_鏈懡鍚嶆几灞4" data-name="鏈懡鍚嶆几灞?4" x1="19.25" y1="14.28" x2="25.88" y2="14.28" gradientTransform="translate(19 -12.18) rotate(50)" gradientUnits="userSpaceOnUse">
      <stop offset="0" stop-color="#ae308c"/>
      <stop offset="1" stop-color="#52328f"/>
    </linearGradient>
    <linearGradient id="_鏈懡鍚嶆几灞330" data-name="鏈懡鍚嶆几灞?330" x1="19.97" y1="14.85" x2="19.97" y2="6.89" gradientTransform="translate(27.21 -10.69) rotate(80)" gradientUnits="userSpaceOnUse">
      <stop offset="0" stop-color="#e4007f"/>
      <stop offset="1" stop-color="#9d2043"/>
    </linearGradient>
    <linearGradient id="_鏈懡鍚嶆几灞325" data-name="鏈懡鍚嶆几灞?325" x1="18.01" y1="12.65" x2="14.03" y2="5.76" gradientTransform="translate(4.11 -4.92) rotate(20)" gradientUnits="userSpaceOnUse">
      <stop offset="0" stop-color="#e60012"/>
      <stop offset="1" stop-color="#9d221b"/>
    </linearGradient>
    <linearGradient id="_鏈懡鍚嶆几灞378" data-name="鏈懡鍚嶆几灞?378" x1="14.54" y1="12.52" x2="8.99" y2="6.97" gradientTransform="translate(11.67 -5.53) rotate(50)" gradientUnits="userSpaceOnUse">
      <stop offset="0" stop-color="#d07810"/>
      <stop offset=".12" stop-color="#d56d11"/>
      <stop offset=".43" stop-color="#e05715"/>
      <stop offset=".73" stop-color="#e64a18"/>
      <stop offset="1" stop-color="#e94619"/>
    </linearGradient>
  </defs>
  <g>
    <g>
      <path class="cls-13" d="M36.85,16.5c-1.72-.4-3.25-.77-3.25-2.24,0-1.27,1.22-2.04,2.84-2.04s2.85.87,2.85,2.36h1.66c0-2.42-1.69-3.96-4.47-3.96s-4.55,1.41-4.55,3.72c0,2.67,2.29,3.22,4.35,3.71,1.74.41,3.32.77,3.32,2.34,0,1.42-1.33,2.31-3.01,2.31-1.85,0-3.21-.99-3.21-2.65h-1.71c0,2.63,1.99,4.29,4.94,4.29,2.66,0,4.72-1.44,4.72-3.97,0-2.78-2.37-3.35-4.47-3.86Z"/>
      <path class="cls-13" d="M48.22,14.17c-1.57,0-2.92.65-3.83,1.71l-.31-1.5h-1.06v13.27h1.54v-4.8c.9.95,2.18,1.52,3.65,1.52,2.91,0,5.03-2.19,5.03-5.1s-2.11-5.1-5.03-5.1ZM48.1,22.89h0c-2.07,0-3.6-1.56-3.6-3.61s1.53-3.61,3.6-3.61,3.59,1.53,3.59,3.61-1.51,3.61-3.59,3.61Z"/>
      <path class="cls-13" d="M64.36,19.32c0-2.86-1.96-5.14-4.93-5.14s-4.99,2.19-4.99,5.1,2.15,5.11,4.99,5.11c2.12,0,3.84-1.18,4.67-3.2h-1.62c-.6,1.06-1.69,1.69-3.05,1.69-1.85,0-3.2-1.19-3.44-3h8.34c.02-.19.03-.37.03-.56ZM56.02,18.45c.32-1.7,1.63-2.82,3.41-2.82s3.06,1.08,3.39,2.82h-6.79Z"/>
      <path class="cls-13" d="M73.83,20.82c-.6,1.31-1.78,2.07-3.22,2.07-1.99,0-3.51-1.57-3.51-3.61s1.5-3.61,3.51-3.61c1.44,0,2.65.77,3.23,2.02h1.52c-.59-2.12-2.42-3.51-4.75-3.51-2.89,0-5.08,2.19-5.08,5.1s2.19,5.1,5.08,5.1c2.31,0,4.18-1.4,4.77-3.56h-1.56Z"/>
      <path class="cls-13" d="M79.16,20.7v-4.92h3.07v-1.39h-3.07v-2.07h-.24l-3.02,3.19v.28h1.72v4.97c0,2.12,1.3,3.42,3.4,3.42h1.27v-1.42h-1.07c-1.33,0-2.06-.73-2.06-2.04Z"/>
      <path class="cls-13" d="M85.32,15.88l-.25-1.49h-1.09v9.78h1.54v-5.31c0-1.9,1.01-3.06,2.8-3.06h1v-1.46h-.87c-1.41,0-2.43.54-3.13,1.54Z"/>
      <path class="cls-13" d="M94.71,14.17c-2.96,0-5.19,2.16-5.19,5.1s2.22,5.1,5.19,5.1,5.19-2.17,5.19-5.1-2.22-5.1-5.19-5.1ZM94.71,22.89h0c-2.09,0-3.61-1.52-3.61-3.61s1.52-3.61,3.61-3.61,3.61,1.52,3.61,3.61-1.52,3.61-3.61,3.61Z"/>
      <polygon class="cls-13" points="105.76 20.8 101.74 10.73 99.22 10.73 104.79 24.49 106.75 24.49 112.21 10.73 109.71 10.73 105.76 20.8"/>
      <rect class="cls-13" x="112.88" y="10.73" width="2.16" height="2.16"/>
      <rect class="cls-13" x="112.87" y="14.07" width="2.17" height="10.41"/>
      <path class="cls-13" d="M126.79,20.69v-4.62h3.17v-1.96h-3.17v-2.85h-2.17v2.85h-2.05l-1.01-.03c-1.2,0-2.18.37-2.92,1.12l-.19-1.12h-1.68v10.41h2.17v-5.61c0-1.77.88-2.81,2.48-2.81h1.14s2.05,0,2.05,0v4.71c0,2.27,1.46,3.74,3.71,3.74h1.68v-2.07h-1.5c-1.13,0-1.72-.6-1.72-1.74Z"/>
      <path class="cls-13" d="M138.02,14.07v5.72c0,1.74-.93,2.78-2.48,2.78s-2.48-1.04-2.48-2.78v-5.72h-2.17v5.97c0,2.79,1.87,4.66,4.65,4.66s4.65-1.83,4.65-4.66v-5.97h-2.17Z"/>
    </g>
    <path class="cls-13" d="M144.27,10.58c1.62,0,3.06,1.31,3.06,3.06,0,1.65-1.34,3.06-3.06,3.06-1.63,0-3.06-1.33-3.06-3.06s1.35-3.06,3.06-3.06ZM141.75,13.64c0,1.36,1.1,2.52,2.52,2.52,1.34,0,2.52-1.08,2.52-2.52s-1.13-2.52-2.53-2.52-2.51,1.09-2.51,2.52ZM143.09,15.37v-3.5h1.38c.77,0,1.2.36,1.2,1.05,0,.56-.3.89-.83.96l.91,1.48h-.68l-.87-1.43h-.47v1.43h-.64ZM144.29,13.39c.49,0,.75-.12.75-.49,0-.3-.15-.49-.76-.49h-.54v.98h.55Z"/>
  </g>
  <g>
    <g id="LWPOLYLINE">
      <rect class="cls-5" x="7.25" y="8.49" width="2.2" height="7.69" transform="translate(-5.25 18.41) rotate(-80)"/>
    </g>
    <g id="LWPOLYLINE-2" data-name="LWPOLYLINE">
      <rect class="cls-1" x="2.84" y="15.19" width="7.69" height="2.2" transform="translate(-5.17 3.27) rotate(-20)"/>
    </g>
    <g id="LWPOLYLINE-3" data-name="LWPOLYLINE">
      <rect class="cls-9" x="3.38" y="19.44" width="7.69" height="2.2" transform="translate(-13.16 12.87) rotate(-50)"/>
    </g>
    <g id="LWPOLYLINE-4" data-name="LWPOLYLINE">
      <rect class="cls-3" x="5.97" y="22.86" width="7.69" height="2.2" transform="translate(-15.48 29.46) rotate(-80)"/>
    </g>
    <g id="LWPOLYLINE-5" data-name="LWPOLYLINE">
      <rect class="cls-10" x="12.67" y="21.78" width="2.2" height="7.69" transform="translate(-7.93 6.25) rotate(-20)"/>
    </g>
    <g id="LWPOLYLINE-6" data-name="LWPOLYLINE">
      <rect class="cls-8" x="16.93" y="21.24" width="2.2" height="7.69" transform="translate(-12.78 22.77) rotate(-50)"/>
    </g>
    <g id="LWPOLYLINE-7" data-name="LWPOLYLINE">
      <rect class="cls-6" x="20.34" y="18.65" width="2.2" height="7.69" transform="translate(-4.43 39.7) rotate(-80)"/>
    </g>
    <g id="LWPOLYLINE-8" data-name="LWPOLYLINE">
      <rect class="cls-12" x="19.26" y="17.44" width="7.69" height="2.2" transform="translate(-4.95 9.02) rotate(-20)"/>
    </g>
    <g id="LWPOLYLINE-9" data-name="LWPOLYLINE">
      <rect class="cls-7" x="18.72" y="13.19" width="7.69" height="2.2" transform="translate(-2.88 22.39) rotate(-50)"/>
    </g>
    <g id="LWPOLYLINE-10" data-name="LWPOLYLINE">
      <rect class="cls-4" x="16.13" y="9.77" width="7.69" height="2.2" transform="translate(5.8 28.65) rotate(-80)"/>
    </g>
    <g id="LWPOLYLINE-11" data-name="LWPOLYLINE">
      <rect class="cls-11" x="14.92" y="5.36" width="2.2" height="7.69" transform="translate(-2.18 6.03) rotate(-20)"/>
    </g>
    <g id="LWPOLYLINE-12" data-name="LWPOLYLINE">
      <rect class="cls-2" x="10.67" y="5.9" width="2.2" height="7.69" transform="translate(-3.26 12.49) rotate(-50)"/>
    </g>
  </g>
  <g>
    <g>
      <path class="cls-14" d="M36.85,16.5c-1.72-.4-3.25-.77-3.25-2.24,0-1.27,1.22-2.04,2.84-2.04s2.85.87,2.85,2.36h1.66c0-2.42-1.69-3.96-4.47-3.96s-4.55,1.41-4.55,3.72c0,2.67,2.29,3.22,4.35,3.71,1.74.41,3.32.77,3.32,2.34,0,1.42-1.33,2.31-3.01,2.31-1.85,0-3.21-.99-3.21-2.65h-1.71c0,2.63,1.99,4.29,4.94,4.29,2.66,0,4.72-1.44,4.72-3.97,0-2.78-2.37-3.35-4.47-3.86Z"/>
      <path class="cls-14" d="M48.22,14.17c-1.57,0-2.92.65-3.83,1.71l-.31-1.5h-1.06v13.27h1.54v-4.8c.9.95,2.18,1.52,3.65,1.52,2.91,0,5.03-2.19,5.03-5.1s-2.11-5.1-5.03-5.1ZM48.1,22.89h0c-2.07,0-3.6-1.56-3.6-3.61s1.53-3.61,3.6-3.61,3.59,1.53,3.59,3.61-1.51,3.61-3.59,3.61Z"/>
      <path class="cls-14" d="M64.36,19.32c0-2.86-1.96-5.14-4.93-5.14s-4.99,2.19-4.99,5.1,2.15,5.11,4.99,5.11c2.12,0,3.84-1.18,4.67-3.2h-1.62c-.6,1.06-1.69,1.69-3.05,1.69-1.85,0-3.2-1.19-3.44-3h8.34c.02-.19.03-.37.03-.56ZM56.02,18.45c.32-1.7,1.63-2.82,3.41-2.82s3.06,1.08,3.39,2.82h-6.79Z"/>
      <path class="cls-14" d="M73.83,20.82c-.6,1.31-1.78,2.07-3.22,2.07-1.99,0-3.51-1.57-3.51-3.61s1.5-3.61,3.51-3.61c1.44,0,2.65.77,3.23,2.02h1.52c-.59-2.12-2.42-3.51-4.75-3.51-2.89,0-5.08,2.19-5.08,5.1s2.19,5.1,5.08,5.1c2.31,0,4.18-1.4,4.77-3.56h-1.56Z"/>
      <path class="cls-14" d="M79.16,20.7v-4.92h3.07v-1.39h-3.07v-2.07h-.24l-3.02,3.19v.28h1.72v4.97c0,2.12,1.3,3.42,3.4,3.42h1.27v-1.42h-1.07c-1.33,0-2.06-.73-2.06-2.04Z"/>
      <path class="cls-14" d="M85.32,15.88l-.25-1.49h-1.09v9.78h1.54v-5.31c0-1.9,1.01-3.06,2.8-3.06h1v-1.46h-.87c-1.41,0-2.43.54-3.13,1.54Z"/>
      <path class="cls-14" d="M94.71,14.17c-2.96,0-5.19,2.16-5.19,5.1s2.22,5.1,5.19,5.1,5.19-2.17,5.19-5.1-2.22-5.1-5.19-5.1ZM94.71,22.89h0c-2.09,0-3.61-1.52-3.61-3.61s1.52-3.61,3.61-3.61,3.61,1.52,3.61,3.61-1.52,3.61-3.61,3.61Z"/>
      <polygon class="cls-14" points="105.76 20.8 101.74 10.73 99.22 10.73 104.79 24.49 106.75 24.49 112.21 10.73 109.71 10.73 105.76 20.8"/>
      <rect class="cls-14" x="112.88" y="10.73" width="2.16" height="2.16"/>
      <rect class="cls-14" x="112.87" y="14.07" width="2.17" height="10.41"/>
      <path class="cls-14" d="M126.79,20.69v-4.62h3.17v-1.96h-3.17v-2.85h-2.17v2.85h-2.05l-1.01-.03c-1.2,0-2.18.37-2.92,1.12l-.19-1.12h-1.68v10.41h2.17v-5.61c0-1.77.88-2.81,2.48-2.81h1.14s2.05,0,2.05,0v4.71c0,2.27,1.46,3.74,3.71,3.74h1.68v-2.07h-1.5c-1.13,0-1.72-.6-1.72-1.74Z"/>
      <path class="cls-14" d="M138.02,14.07v5.72c0,1.74-.93,2.78-2.48,2.78s-2.48-1.04-2.48-2.78v-5.72h-2.17v5.97c0,2.79,1.87,4.66,4.65,4.66s4.65-1.83,4.65-4.66v-5.97h-2.17Z"/>
    </g>
    <path class="cls-14" d="M144.27,10.58c1.62,0,3.06,1.31,3.06,3.06,0,1.65-1.34,3.06-3.06,3.06-1.63,0-3.06-1.33-3.06-3.06s1.35-3.06,3.06-3.06ZM141.75,13.64c0,1.36,1.1,2.52,2.52,2.52,1.34,0,2.52-1.08,2.52-2.52s-1.13-2.52-2.53-2.52-2.51,1.09-2.51,2.52ZM143.09,15.37v-3.5h1.38c.77,0,1.2.36,1.2,1.05,0,.56-.3.89-.83.96l.91,1.48h-.68l-.87-1.43h-.47v1.43h-.64ZM144.29,13.39c.49,0,.75-.12.75-.49,0-.3-.15-.49-.76-.49h-.54v.98h.55Z"/>
  </g>
  <g>
    <g id="LWPOLYLINE-13" data-name="LWPOLYLINE">
      <rect class="cls-5" x="7.25" y="8.49" width="2.2" height="7.69" transform="translate(-5.25 18.41) rotate(-80)"/>
    </g>
    <g id="LWPOLYLINE-14" data-name="LWPOLYLINE">
      <rect class="cls-1" x="2.84" y="15.19" width="7.69" height="2.2" transform="translate(-5.17 3.27) rotate(-20)"/>
    </g>
    <g id="LWPOLYLINE-15" data-name="LWPOLYLINE">
      <rect class="cls-9" x="3.38" y="19.44" width="7.69" height="2.2" transform="translate(-13.16 12.87) rotate(-50)"/>
    </g>
    <g id="LWPOLYLINE-16" data-name="LWPOLYLINE">
      <rect class="cls-3" x="5.97" y="22.86" width="7.69" height="2.2" transform="translate(-15.48 29.46) rotate(-80)"/>
    </g>
    <g id="LWPOLYLINE-17" data-name="LWPOLYLINE">
      <rect class="cls-10" x="12.67" y="21.78" width="2.2" height="7.69" transform="translate(-7.93 6.25) rotate(-20)"/>
    </g>
    <g id="LWPOLYLINE-18" data-name="LWPOLYLINE">
      <rect class="cls-8" x="16.93" y="21.24" width="2.2" height="7.69" transform="translate(-12.78 22.77) rotate(-50)"/>
    </g>
    <g id="LWPOLYLINE-19" data-name="LWPOLYLINE">
      <rect class="cls-6" x="20.34" y="18.65" width="2.2" height="7.69" transform="translate(-4.43 39.7) rotate(-80)"/>
    </g>
    <g id="LWPOLYLINE-20" data-name="LWPOLYLINE">
      <rect class="cls-12" x="19.26" y="17.44" width="7.69" height="2.2" transform="translate(-4.95 9.02) rotate(-20)"/>
    </g>
    <g id="LWPOLYLINE-21" data-name="LWPOLYLINE">
      <rect class="cls-7" x="18.72" y="13.19" width="7.69" height="2.2" transform="translate(-2.88 22.39) rotate(-50)"/>
    </g>
    <g id="LWPOLYLINE-22" data-name="LWPOLYLINE">
      <rect class="cls-4" x="16.13" y="9.77" width="7.69" height="2.2" transform="translate(5.8 28.65) rotate(-80)"/>
    </g>
    <g id="LWPOLYLINE-23" data-name="LWPOLYLINE">
      <rect class="cls-11" x="14.92" y="5.36" width="2.2" height="7.69" transform="translate(-2.18 6.03) rotate(-20)"/>
    </g>
    <g id="LWPOLYLINE-24" data-name="LWPOLYLINE">
      <rect class="cls-2" x="10.67" y="5.9" width="2.2" height="7.69" transform="translate(-3.26 12.49) rotate(-50)"/>
    </g>
  </g>
</svg>
